<?xml version="1.0" encoding="UTF-8" standalone="no"?>
<!-- Created with Inkscape (http://www.inkscape.org/) -->

<svg
   xmlns:dc="http://purl.org/dc/elements/1.1/"
   xmlns:cc="http://creativecommons.org/ns#"
   xmlns:rdf="http://www.w3.org/1999/02/22-rdf-syntax-ns#"
   xmlns:svg="http://www.w3.org/2000/svg"
   xmlns="http://www.w3.org/2000/svg"
   xmlns:sodipodi="http://sodipodi.sourceforge.net/DTD/sodipodi-0.dtd"
   xmlns:inkscape="http://www.inkscape.org/namespaces/inkscape"
   width="245.827mm"
   height="25.074671mm"
   viewBox="0 0 245.827 25.07467"
   version="1.1"
   id="svg9493"
   inkscape:version="0.92.2 (5c3e80d, 2017-08-06)"
   sodipodi:docname="logo_dolgan_v2.svg"
   inkscape:export-filename="C:\Users\Erick\Documents\UCSD\Fenning\website\logo_v2.png"
   inkscape:export-xdpi="300"
   inkscape:export-ydpi="300">
  <defs
     id="defs9487" />
  <sodipodi:namedview
     id="base"
     pagecolor="#ffffff"
     bordercolor="#666666"
     borderopacity="1.0"
     inkscape:pageopacity="0.0"
     inkscape:pageshadow="2"
     inkscape:zoom="0.98994949"
     inkscape:cx="139.85601"
     inkscape:cy="-32.361223"
     inkscape:document-units="mm"
     inkscape:current-layer="layer1"
     showgrid="false"
     showguides="false"
     inkscape:guide-bbox="true"
     inkscape:snap-midpoints="true"
     inkscape:snap-intersection-paths="true"
     inkscape:snap-smooth-nodes="false"
     inkscape:snap-object-midpoints="true"
     inkscape:object-paths="false"
     fit-margin-top="1"
     fit-margin-left="5"
     fit-margin-bottom="0"
     fit-margin-right="2"
     inkscape:window-width="1366"
     inkscape:window-height="705"
     inkscape:window-x="-8"
     inkscape:window-y="-8"
     inkscape:window-maximized="1">
    <sodipodi:guide
       position="166.59541,16.62294"
       orientation="0,1"
       id="guide10063"
       inkscape:locked="false" />
    <sodipodi:guide
       position="140.56083,20.147261"
       orientation="1,0"
       id="guide10065"
       inkscape:locked="false" />
    <sodipodi:guide
       position="169.29292,16.61776"
       orientation="1,0"
       id="guide10067"
       inkscape:locked="false" />
    <sodipodi:guide
       position="210.73682,14.50002"
       orientation="1,0"
       id="guide10069"
       inkscape:locked="false" />
    <sodipodi:guide
       position="159.1385,16.61777"
       orientation="1,0"
       id="guide10071"
       inkscape:locked="false" />
    <sodipodi:guide
       position="159.1385,16.61777"
       orientation="-0.70710678,0.70710678"
       id="guide10075"
       inkscape:locked="false" />
    <sodipodi:guide
       position="159.1385,16.61778"
       orientation="-0.70710678,-0.70710678"
       id="guide10077"
       inkscape:locked="false" />
    <sodipodi:guide
       position="159.1385,16.61777"
       orientation="-0.92382955,-0.38280408"
       id="guide10081"
       inkscape:locked="false" />
    <sodipodi:guide
       position="159.14367,16.62295"
       orientation="-0.91977432,0.39244769"
       id="guide10083"
       inkscape:locked="false" />
    <sodipodi:guide
       position="145.73881,24.074482"
       orientation="0,1"
       id="guide11480"
       inkscape:locked="false" />
    <sodipodi:guide
       position="140.56083,1.603615"
       orientation="0,1"
       id="guide11482"
       inkscape:locked="false" />
  </sodipodi:namedview>
  <metadata
     id="metadata9490">
    <rdf:RDF>
      <cc:Work
         rdf:about="">
        <dc:format>image/svg+xml</dc:format>
        <dc:type
           rdf:resource="http://purl.org/dc/dcmitype/StillImage" />
        <dc:title></dc:title>
      </cc:Work>
    </rdf:RDF>
  </metadata>
  <g
     inkscape:label="Layer 1"
     inkscape:groupmode="layer"
     id="layer1"
     transform="translate(71.355751,-66.395699)">
    <path
       inkscape:connector-curvature="0"
       id="path10046"
       style="font-style:normal;font-variant:normal;font-weight:normal;font-stretch:normal;font-size:medium;line-height:1.25;font-family:Arial;-inkscape-font-specification:Arial;letter-spacing:0px;word-spacing:0px;fill:#ff7201;fill-opacity:1;stroke:none;stroke-width:0.26458332"
       d="m 87.78792,69.256051 q -2.315104,0 -3.958414,1.64331 -1.643311,1.632975 -1.643311,3.948079 0,2.315104 1.643311,3.958415 1.64331,1.64331 3.958414,1.64331 2.315105,0 3.94808,-1.64331 1.64331,-1.643311 1.64331,-3.958415 0,-2.315104 -1.64331,-3.948079 -1.632975,-1.64331 -3.94808,-1.64331 z m 7.451742,5.591389 q 0,3.090251 -2.180746,5.281332 -2.180745,2.180745 -5.270996,2.180745 -3.09025,0 -5.281331,-2.180745 -2.180745,-2.191081 -2.180745,-5.281332 0,-3.09025 2.180745,-5.270996 2.191081,-2.180745 5.281331,-2.180745 3.090251,0 5.270996,2.180745 2.180746,2.180746 2.180746,5.270996 z" />
    <path
       style="font-style:normal;font-variant:normal;font-weight:normal;font-stretch:normal;font-size:21.16666603px;line-height:1.25;font-family:Dolgan;-inkscape-font-specification:Dolgan;letter-spacing:0px;word-spacing:0px;fill:#4d4d4d;fill-opacity:1;stroke:none;stroke-width:0.26458332"
       d="m 74.383055,67.395886 c -2.191081,0 -3.710368,0.654568 -4.557861,1.963703 -0.385852,0.647678 -0.592558,1.302247 -0.620117,1.963705 0,1.374572 0.823548,2.514312 2.464967,3.421497 l 4.793504,-0.183452 c -0.172945,-0.08089 -0.346332,-0.161446 -0.530199,-0.240813 -0.323839,-0.144693 -0.726916,-0.310057 -1.209228,-0.496094 l -0.28939,-0.113686 -0.289386,-0.113689 c -0.213598,-0.08957 -0.396187,-0.161922 -0.547772,-0.21704 -0.806151,-0.330729 -1.384927,-0.627007 -1.736328,-0.888836 -0.454752,-0.344509 -0.682127,-0.733806 -0.682127,-1.167887 0.02066,-0.35829 0.144692,-0.702799 0.37207,-1.033528 0.516763,-0.68902 1.460719,-1.033529 2.831867,-1.033529 1.178224,0 2.177301,0.327284 2.997234,0.981853 0.413412,0.330726 0.706245,0.658011 0.878499,0.98185 l 1.519288,-0.826823 C 79.612711,69.897024 79.264755,69.397485 78.73421,68.894501 77.680012,67.895424 76.229627,67.395886 74.383055,67.395886 Z m -2.31407,7.556645 c 0.06174,0.03038 0.12127,0.06165 0.185002,0.09147 0.358289,0.165365 0.775145,0.337619 1.250569,0.516763 l 0.630452,0.227378 0.299723,0.103352 0.299725,0.103354 c 0.964626,0.344508 1.60886,0.620117 1.932697,0.826823 0.530545,0.337619 0.854384,0.723468 0.971518,1.157552 0.103351,0.406521 0.02066,0.802706 -0.248047,1.188558 -0.268716,0.372071 -0.671793,0.675238 -1.209228,0.909506 -0.564996,0.248046 -1.198893,0.37207 -1.901692,0.37207 -0.564997,0 -1.098987,-0.113689 -1.601971,-0.341067 -0.406521,-0.186033 -0.782036,-0.437525 -1.126545,-0.754475 -0.399632,-0.358291 -0.699355,-0.720024 -0.899171,-1.085204 l -1.860351,0.930174 c 0.261826,0.516766 0.685575,1.036974 1.271241,1.560629 1.171331,1.033529 2.57693,1.550294 4.216797,1.550294 1.371147,0 2.51492,-0.268718 3.431315,-0.806153 0.81304,-0.475422 1.384927,-1.112766 1.715656,-1.912028 0.303167,-0.730361 0.354846,-1.471056 0.15503,-2.222087 -0.199816,-0.75103 -0.606338,-1.333251 -1.219563,-1.746663 -0.220503,-0.151595 -0.463843,-0.3 -0.717269,-0.447 z"
       id="path10044"
       inkscape:connector-curvature="0" />
    <path
       style="font-style:normal;font-variant:normal;font-weight:normal;font-stretch:normal;font-size:medium;line-height:1.25;font-family:Arial;-inkscape-font-specification:Arial;letter-spacing:0px;word-spacing:0px;fill:#ff7201;fill-opacity:1;stroke:none;stroke-width:0.26458332"
       d="m 97.937173,67.395886 v 7.124112 l 1.860352,0.07596 v -7.200077 z m 1.860352,7.711672 -1.860352,0.06873 v 7.133415 h 9.322427 v -1.860351 h -7.462075 z"
       id="path10048"
       inkscape:connector-curvature="0" />
    <path
       inkscape:connector-curvature="0"
       id="path10050"
       style="font-style:normal;font-variant:normal;font-weight:normal;font-stretch:normal;font-size:21.16666603px;line-height:1.25;font-family:Dolgan;-inkscape-font-specification:Dolgan;letter-spacing:0px;word-spacing:0px;fill:#000000;fill-opacity:1;stroke:none;stroke-width:0.26458332"
       d="m 118.52506,67.395699 v 1.860352 h -8.39225 v 4.661214 h 7.46208 v 1.860351 h -7.46208 v 4.671549 h 8.39225 v 1.860352 h -10.2526 V 67.395699 Z" />
    <path
       inkscape:connector-curvature="0"
       id="path10052"
       style="font-style:normal;font-variant:normal;font-weight:normal;font-stretch:normal;font-size:21.16666603px;line-height:1.25;font-family:Dolgan;-inkscape-font-specification:Dolgan;letter-spacing:0px;word-spacing:0px;fill:#000000;fill-opacity:1;stroke:none;stroke-width:0.26458332"
       d="m 121.00553,67.395699 h 1.86035 v 14.913818 h -1.86035 z" />
    <path
       inkscape:connector-curvature="0"
       id="path10054"
       style="font-style:normal;font-variant:normal;font-weight:normal;font-stretch:normal;font-size:21.16666603px;line-height:1.25;font-family:Dolgan;-inkscape-font-specification:Dolgan;letter-spacing:0px;word-spacing:0px;fill:#000000;fill-opacity:1;stroke:none;stroke-width:0.26458332"
       d="m 128.19889,67.395699 v 13.053466 h 7.46208 v 1.860352 h -9.32243 V 67.395699 Z" />
    <path
       d="m 87.78792,69.256051 q -2.315104,0 -3.958414,1.64331 -1.643311,1.632975 -1.643311,3.948079 0,2.315104 1.643311,3.958415 1.64331,1.64331 3.958414,1.64331 2.315105,0 3.94808,-1.64331 1.64331,-1.643311 1.64331,-3.958415 0,-2.315104 -1.64331,-3.948079 -1.632975,-1.64331 -3.94808,-1.64331 z m 7.451742,5.591389 q 0,3.090251 -2.180746,5.281332 -2.180745,2.180745 -5.270996,2.180745 -3.09025,0 -5.281331,-2.180745 -2.180745,-2.191081 -2.180745,-5.281332 0,-3.09025 2.180745,-5.270996 2.191081,-2.180745 5.281331,-2.180745 3.090251,0 5.270996,2.180745 2.180746,2.180746 2.180746,5.270996 z"
       style="font-style:normal;font-variant:normal;font-weight:normal;font-stretch:normal;font-size:medium;line-height:1.25;font-family:Arial;-inkscape-font-specification:Arial;letter-spacing:0px;word-spacing:0px;fill:#ff7201;fill-opacity:1;stroke:none;stroke-width:0.26458332"
       id="path10085"
       inkscape:connector-curvature="0" />
    <text
       xml:space="preserve"
       style="font-style:normal;font-variant:normal;font-weight:normal;font-stretch:normal;font-size:10.58333302px;line-height:1.25;font-family:Corbel;-inkscape-font-specification:Corbel;letter-spacing:0px;word-spacing:0px;fill:#333333;fill-opacity:1;stroke:none;stroke-width:0.26458332"
       x="68.842773"
       y="89.782272"
       id="text4639"><tspan
         sodipodi:role="line"
         id="tspan4637"
         x="68.842773"
         y="89.782272"
         style="font-style:normal;font-variant:normal;font-weight:normal;font-stretch:normal;font-size:7.05555534px;font-family:Corbel;-inkscape-font-specification:Corbel;fill:#333333;stroke-width:0.26458332">Solar Energy Innovation Laboratory</tspan></text>
    <text
       xml:space="preserve"
       style="font-style:normal;font-variant:normal;font-weight:bold;font-stretch:normal;font-size:10.58333302px;line-height:1.25;font-family:'Ubuntu Condensed';-inkscape-font-specification:'Ubuntu Condensed,  Bold';letter-spacing:0px;word-spacing:0px;fill:#000000;fill-opacity:1;stroke:none;stroke-width:0.26458332"
       x="-67.541084"
       y="81.947861"
       id="text11450"><tspan
         sodipodi:role="line"
         id="tspan11448"
         x="-67.541084"
         y="81.947861"
         style="font-style:normal;font-variant:normal;font-weight:bold;font-stretch:normal;font-size:14.11111069px;font-family:'Ubuntu Condensed';-inkscape-font-specification:'Ubuntu Condensed, Bold';stroke-width:0.26458332">Fenning <tspan
   style="font-size:14.11111069px;fill:#4d4d4d"
   id="tspan11460">Research Group</tspan></tspan></text>
    <path
       style="opacity:0.8;fill:#ff7201;fill-opacity:1;stroke:#1b9500;stroke-width:0.70555556;stroke-linecap:butt;stroke-linejoin:miter;stroke-miterlimit:4;stroke-dasharray:none;stroke-opacity:1"
       d="M 63.320186,67.395886 V 89.866753"
       id="path11484"
       inkscape:connector-curvature="0" />
  </g>
</svg>
